<svg width="28" height="25" viewBox="0 0 28 25" fill="none" xmlns="http://www.w3.org/2000/svg">
<path d="M27.8343 12.6197C27.8343 12.2594 27.6911 11.9139 27.4364 11.6591C27.1816 11.4044 26.8361 11.2612 26.4758 11.2612H26.0229V0.846141C26.0229 0.726043 25.9752 0.610864 25.8903 0.525942C25.8054 0.441019 25.6902 0.393311 25.5701 0.393311H19.2305C19.1104 0.393311 18.9952 0.441019 18.9103 0.525942C18.8254 0.610864 18.7776 0.726043 18.7776 0.846141V2.20463H16.9663V3.11029H21.4946V2.20463H19.6833V1.29897H25.1173V11.2612H2.02293C1.70286 11.2606 1.3929 11.3733 1.14795 11.5793C0.903006 11.7854 0.738879 12.0714 0.684642 12.3869C0.630405 12.7023 0.689557 13.0268 0.851623 13.3028C1.01369 13.5788 1.26821 13.7886 1.5701 13.8949V17.6009C1.57163 18.5236 1.8859 19.4185 2.4616 20.1397C3.0373 20.8608 3.84044 21.3654 4.73991 21.5713V23.9405C4.73991 24.0606 4.78762 24.1758 4.87254 24.2607C4.95747 24.3456 5.07264 24.3933 5.19274 24.3933H7.00406C7.12416 24.3933 7.23934 24.3456 7.32426 24.2607C7.40918 24.1758 7.45689 24.0606 7.45689 23.9405V21.6763H21.0418V23.9405C21.0418 24.0606 21.0895 24.1758 21.1744 24.2607C21.2594 24.3456 21.3745 24.3933 21.4946 24.3933H23.306C23.426 24.3933 23.5412 24.3456 23.6262 24.2607C23.7111 24.1758 23.7588 24.0606 23.7588 23.9405V21.5713C24.6583 21.3654 25.4614 20.8608 26.0371 20.1397C26.6128 19.4185 26.9271 18.5236 26.9286 17.6009V13.8949C27.1926 13.8016 27.4212 13.629 27.5833 13.4007C27.7455 13.1725 27.8331 12.8997 27.8343 12.6197ZM4.73991 16.2424H10.1739V17.148H4.73991V16.2424ZM10.1739 15.3367H4.73991V12.1669H10.1739V15.3367ZM2.02293 12.1669H3.83425V13.0726H2.02293C1.90283 13.0726 1.78765 13.0248 1.70273 12.9399C1.61781 12.855 1.5701 12.7398 1.5701 12.6197C1.5701 12.4996 1.61781 12.3844 1.70273 12.2995C1.78765 12.2146 1.90283 12.1669 2.02293 12.1669ZM6.55123 23.4876H5.64557V21.6763H6.55123V23.4876ZM22.8531 23.4876H21.9475V21.6763H22.8531V23.4876ZM26.0229 17.6009C26.0219 18.4412 25.6875 19.2468 25.0933 19.8411C24.4991 20.4353 23.6935 20.7696 22.8531 20.7707H5.64557C4.80522 20.7696 3.99959 20.4353 3.40537 19.8411C2.81115 19.2468 2.47684 18.4412 2.47576 17.6009V13.9782H3.83425V17.6009C3.83425 17.721 3.88196 17.8361 3.96688 17.9211C4.05181 18.006 4.16698 18.0537 4.28708 18.0537H10.6267C10.7468 18.0537 10.862 18.006 10.9469 17.9211C11.0318 17.8361 11.0795 17.721 11.0795 17.6009V13.9782H26.0229V17.6009ZM26.4758 13.0726H11.0795V12.1669H26.4758C26.5959 12.1669 26.711 12.2146 26.796 12.2995C26.8809 12.3844 26.9286 12.4996 26.9286 12.6197C26.9286 12.7398 26.8809 12.855 26.796 12.9399C26.711 13.0248 26.5959 13.0726 26.4758 13.0726Z" fill="#909BC5"/>
</svg>
