<svg width="29" height="9" viewBox="0 0 29 9" fill="none" xmlns="http://www.w3.org/2000/svg">
<path d="M27.6746 8.39331H1.55463C1.41863 8.38599 1.28556 8.35096 1.16359 8.29038C1.04161 8.2298 0.933288 8.14494 0.845273 8.04101C0.757258 7.93708 0.6914 7.81626 0.651739 7.68597C0.612078 7.55568 0.59945 7.41866 0.614628 7.28331V2.99331C0.614628 1.53331 1.49463 0.393311 2.61463 0.393311H26.6146C27.7346 0.393311 28.6146 1.53331 28.6146 2.99331V7.28331C28.6298 7.41866 28.6172 7.55568 28.5775 7.68597C28.5379 7.81626 28.472 7.93708 28.384 8.04101C28.296 8.14494 28.1876 8.2298 28.0657 8.29038C27.9437 8.35096 27.8106 8.38599 27.6746 8.39331ZM1.61463 7.39331H27.6146C27.6222 7.35703 27.6222 7.31959 27.6146 7.28331V2.99331C27.6146 2.12331 27.1546 1.39331 26.6146 1.39331H2.61463C2.07463 1.39331 1.61463 2.12331 1.61463 2.99331V7.28331C1.60708 7.31959 1.60708 7.35703 1.61463 7.39331Z" fill="#909BC5"/>
</svg>
