<svg width="26" height="26" viewBox="0 0 26 26" fill="none" xmlns="http://www.w3.org/2000/svg">
<path d="M3.4972 10.0252L13.1097 3.03385L22.7221 10.0252H25.7316L23.4387 8.3558V3.73053H19.3788V5.4053L13.1097 0.845703L0.487305 10.0252H3.4972Z" fill="#909BC5"/>
<path d="M9.34457 9.11239C10.1248 8.259 11.2159 7.82295 12.6213 7.81173V6.41504H13.6164V7.78637C15.0098 7.88738 16.0764 8.29641 16.8196 9.01845C17.5649 9.7409 17.9544 10.6953 17.9898 11.8804H16.1541C16.1047 11.3479 15.9625 10.889 15.7256 10.5091C15.2845 9.80034 14.5821 9.42872 13.6181 9.39464V14.5058C15.2401 14.9589 16.3412 15.3854 16.9194 15.7836C17.8642 16.4379 18.3356 17.4127 18.3356 18.6988C18.3356 20.559 17.7316 21.8779 16.522 22.6619C15.8515 23.0955 14.8826 23.3798 13.6164 23.5207V25.5575H12.6213V23.5207C10.5862 23.3885 9.20532 22.6715 8.47706 21.3629C8.07884 20.6538 7.87891 19.6989 7.87891 18.4972H9.73738C9.79184 19.4541 9.9448 20.1587 10.1901 20.5968C10.6265 21.3866 11.4383 21.8306 12.6213 21.9249V16.2126C11.1045 15.9266 9.98305 15.4465 9.26019 14.7765C8.5365 14.1051 8.17528 13.174 8.17528 11.9843C8.17528 10.921 8.56477 9.96578 9.34457 9.11239ZM10.7554 13.4849C11.2172 13.8757 11.8378 14.15 12.6222 14.3005V9.37261C11.6985 9.40794 11.0418 9.68894 10.6498 10.2085C10.2586 10.7356 10.0633 11.2852 10.0633 11.8584C10.0629 12.5505 10.2931 13.0934 10.7554 13.4849ZM16.0926 20.6666C16.3304 20.2435 16.4497 19.76 16.4497 19.2122C16.4497 18.3359 16.1259 17.6721 15.4828 17.2148C15.1129 16.9513 14.491 16.6994 13.6181 16.462V21.9769C14.8144 21.922 15.6366 21.486 16.0926 20.6666Z" fill="#909BC5"/>
</svg>
